# Blender 4.4.3
# www.blender.org
mtllib house.mtl
o House
v -0.309116 0.000000 0.484939
v -0.309116 2.533343 0.484939
v -1.899734 4.034910 0.484939
v -1.899654 4.034913 0.704521
v -0.125457 2.468079 0.703275
v -0.163391 2.395809 0.703275
v -1.959391 0.000000 0.484939
v -1.959391 2.533343 0.484939
v -1.959391 4.034910 0.484939
v -1.959391 4.034913 0.704521
v -1.959391 4.183273 0.704521
v -1.959391 4.186527 0.704520
v -0.309116 -0.000000 -1.776649
v -0.309116 2.533343 -1.776649
v -1.899734 4.034910 -1.776649
v -0.125526 2.468065 -1.776649
v -0.163471 2.395806 -1.776649
v -1.959391 4.186449 -1.776649
v -1.959391 -0.000000 -1.776649
v -3.609666 0.000000 0.484939
v -3.609666 2.533343 0.484939
v -2.019047 4.034910 0.484939
v -2.019127 4.034913 0.704521
v -3.793324 2.468079 0.703275
v -3.755390 2.395809 0.703275
v -3.609666 -0.000000 -1.776649
v -3.609666 2.533343 -1.776649
v -2.019047 4.034910 -1.776649
v -3.793255 2.468065 -1.776649
v -3.755310 2.395806 -1.776649
v -0.309116 -0.000000 -4.038237
v -0.309116 2.533343 -4.038237
v -1.899734 4.034910 -4.038238
v -1.899654 4.034913 -4.257820
v -0.125457 2.468079 -4.256573
v -0.163391 2.395809 -4.256573
v -1.959391 -0.000000 -4.038237
v -1.959391 2.533343 -4.038237
v -1.959391 4.034910 -4.038238
v -1.959391 4.034913 -4.257820
v -1.959391 4.183272 -4.257820
v -1.959391 4.186526 -4.257819
v -3.609666 -0.000000 -4.038237
v -3.609666 2.533343 -4.038237
v -2.019047 4.034910 -4.038238
v -2.019127 4.034913 -4.257820
v -3.793324 2.468079 -4.256573
v -3.755390 2.395809 -4.256573
vn 1.0000 -0.0000 -0.0000
vn -0.0000 -1.0000 -0.0000
vn -0.0000 -0.0000 1.0000
vn 0.0007 0.0008 1.0000
vn -0.0000 0.0003 1.0000
vn 0.0001 -0.0000 1.0000
vn 0.0005 -0.0003 1.0000
vn -0.6865 -0.7272 -0.0000
vn -0.6865 -0.7272 0.0001
vn 0.6838 0.7297 -0.0000
vn 0.6865 0.7272 -0.0000
vn 0.8854 -0.4648 -0.0000
vn 0.8854 -0.4649 -0.0000
vn -0.0000 -0.0006 1.0000
vn -0.6865 -0.7272 0.0003
vn -1.0000 -0.0000 -0.0000
vn -0.0007 0.0008 1.0000
vn -0.0001 -0.0000 1.0000
vn -0.0005 -0.0003 1.0000
vn 0.6865 -0.7272 -0.0000
vn 0.6865 -0.7272 0.0001
vn -0.6838 0.7297 -0.0000
vn -0.6865 0.7272 -0.0000
vn -0.8854 -0.4648 -0.0000
vn -0.8854 -0.4649 -0.0000
vn 0.6865 -0.7272 0.0003
vn -0.0000 -0.0000 -1.0000
vn -0.0000 0.0003 -1.0000
vn 0.0007 0.0008 -1.0000
vn 0.0001 -0.0000 -1.0000
vn 0.0005 -0.0003 -1.0000
vn -0.6865 -0.7272 -0.0001
vn -0.0000 -0.0006 -1.0000
vn -0.6865 -0.7272 -0.0003
vn -0.0007 0.0008 -1.0000
vn -0.0001 -0.0000 -1.0000
vn -0.0005 -0.0003 -1.0000
vn 0.6865 -0.7272 -0.0001
vn 0.6865 -0.7272 -0.0003
vt 0.375000 0.750000
vt 0.375000 0.625000
vt 0.625000 0.625000
vt 0.250000 0.750000
vt 0.250000 0.625000
vt 0.625000 0.875000
vt 0.625000 0.750000
vt 0.625000 0.875167
vt 0.625000 0.991496
vt 0.625000 1.000000
vt 0.625000 0.625069
vt 0.625000 0.125000
vt 0.625000 0.000000
vt 0.375000 0.875000
vt 0.625000 0.625078
vt 0.625000 0.124931
vt 0.625000 0.750009
s 1
f 1/1/1 13/2/1 14/3/1
f 7/4/2 19/5/2 13/2/2
f 8/6/3 2/7/3 3/7/3
f 10/8/2 9/6/2 3/7/2
f 10/8/3 4/7/4 11/9/5
f 5/10/6 4/7/4 6/7/7
f 17/11/8 6/7/8 3/7/9
f 18/12/10 12/13/10 5/13/10
f 7/14/3 1/1/3 2/7/3
f 3/7/11 2/7/11 14/3/11
f 6/7/12 17/11/13 16/15/13
f 1/1/1 14/3/1 2/7/1
f 7/4/2 13/2/2 1/1/2
f 8/6/3 3/7/3 9/6/3
f 10/8/2 3/7/2 4/7/2
f 4/7/4 12/10/14 11/9/5
f 12/10/14 4/7/4 5/10/6
f 15/3/8 17/11/8 3/7/9
f 3/7/9 6/7/8 4/7/15
f 18/12/10 5/13/10 16/16/10
f 7/14/3 2/7/3 8/6/3
f 3/7/11 14/3/11 15/3/11
f 6/7/12 16/15/13 5/17/12
f 20/1/16 27/3/16 26/2/16
f 7/4/2 26/2/2 19/5/2
f 8/6/3 22/7/3 21/7/3
f 10/8/2 22/7/2 9/6/2
f 10/8/3 11/9/5 23/7/17
f 24/10/18 25/7/19 23/7/17
f 30/11/20 22/7/21 25/7/20
f 18/12/22 24/13/22 12/13/22
f 7/14/3 21/7/3 20/1/3
f 22/7/23 27/3/23 21/7/23
f 25/7/24 29/15/25 30/11/25
f 20/1/16 21/7/16 27/3/16
f 7/4/2 20/1/2 26/2/2
f 8/6/3 9/6/3 22/7/3
f 10/8/2 23/7/2 22/7/2
f 23/7/17 11/9/5 12/10/14
f 12/10/14 24/10/18 23/7/17
f 28/3/20 22/7/21 30/11/20
f 22/7/21 23/7/26 25/7/20
f 18/12/22 29/16/22 24/13/22
f 7/14/3 8/6/3 21/7/3
f 22/7/23 28/3/23 27/3/23
f 25/7/24 24/17/24 29/15/25
f 31/1/1 14/3/1 13/2/1
f 37/4/2 13/2/2 19/5/2
f 38/6/27 33/7/27 32/7/27
f 40/8/2 33/7/2 39/6/2
f 40/8/27 41/9/28 34/7/29
f 35/10/30 36/7/31 34/7/29
f 17/11/8 33/7/32 36/7/8
f 18/12/10 35/13/10 42/13/10
f 37/14/27 32/7/27 31/1/27
f 33/7/11 14/3/11 32/7/11
f 36/7/12 16/15/13 17/11/13
f 31/1/1 32/7/1 14/3/1
f 37/4/2 31/1/2 13/2/2
f 38/6/27 39/6/27 33/7/27
f 40/8/2 34/7/2 33/7/2
f 34/7/29 41/9/28 42/10/33
f 42/10/33 35/10/30 34/7/29
f 15/3/8 33/7/32 17/11/8
f 33/7/32 34/7/34 36/7/8
f 18/12/10 16/16/10 35/13/10
f 37/14/27 38/6/27 32/7/27
f 33/7/11 15/3/11 14/3/11
f 36/7/12 35/17/12 16/15/13
f 43/1/16 26/2/16 27/3/16
f 37/4/2 19/5/2 26/2/2
f 38/6/27 44/7/27 45/7/27
f 40/8/2 39/6/2 45/7/2
f 40/8/27 46/7/35 41/9/28
f 47/10/36 46/7/35 48/7/37
f 30/11/20 48/7/20 45/7/38
f 18/12/22 42/13/22 47/13/22
f 37/14/27 43/1/27 44/7/27
f 45/7/23 44/7/23 27/3/23
f 48/7/24 30/11/25 29/15/25
f 43/1/16 27/3/16 44/7/16
f 37/4/2 26/2/2 43/1/2
f 38/6/27 45/7/27 39/6/27
f 40/8/2 45/7/2 46/7/2
f 46/7/35 42/10/33 41/9/28
f 42/10/33 46/7/35 47/10/36
f 28/3/20 30/11/20 45/7/38
f 45/7/38 48/7/20 46/7/39
f 18/12/22 47/13/22 29/16/22
f 37/14/27 44/7/27 38/6/27
f 45/7/23 27/3/23 28/3/23
f 48/7/24 29/15/25 47/17/24
o Garage
v 2.987093 -0.000000 -0.438478
v 2.987093 2.078697 -0.438478
v 1.396474 2.204618 -0.438478
v 1.396554 2.204618 -0.399934
v 3.170752 2.073225 -0.400153
v 3.132817 2.067164 -0.400153
v 1.336818 -0.000000 -0.438478
v 1.336818 2.078697 -0.438478
v 1.336818 2.204618 -0.438478
v 1.336818 2.204618 -0.399934
v 1.336818 2.217059 -0.399934
v 1.336818 2.217332 -0.399934
v 2.987093 -0.000000 -2.070168
v 2.987093 2.078697 -2.070168
v 1.396474 2.204618 -2.070168
v 3.170682 2.073223 -2.070168
v 3.132738 2.067163 -2.070168
v 1.336818 2.217325 -2.070168
v 1.336818 -0.000000 -2.070168
v 2.565699 -0.000000 -0.438478
v 1.336818 1.837355 -0.438478
v 2.565699 1.837355 -0.438478
v 1.336818 1.837355 -0.501374
v 1.336818 -0.000000 -0.501374
v 2.565699 -0.000000 -0.501374
v 2.565699 1.837355 -0.501374
v -0.313457 -0.000000 -0.438478
v -0.313457 2.078697 -0.438478
v 1.277161 2.204618 -0.438478
v 1.277081 2.204618 -0.399934
v -0.497116 2.073225 -0.400153
v -0.459182 2.067164 -0.400153
v -0.313457 -0.000000 -2.070168
v -0.313457 2.078697 -2.070168
v 1.277161 2.204618 -2.070168
v -0.497047 2.073223 -2.070168
v -0.459102 2.067163 -2.070168
v 0.107937 -0.000000 -0.438478
v 0.107937 1.837355 -0.438478
v 0.107937 -0.000000 -0.501374
v 0.107937 1.837355 -0.501374
v 2.987093 -0.000000 -3.701858
v 2.987093 2.078697 -3.701858
v 1.396474 2.204618 -3.701858
v 1.396554 2.204618 -3.740402
v 3.170752 2.073225 -3.740183
v 3.132817 2.067164 -3.740183
v 1.336818 -0.000000 -3.701858
v 1.336818 2.078697 -3.701858
v 1.336818 2.204618 -3.701858
v 1.336818 2.204618 -3.740402
v 1.336818 2.217059 -3.740402
v 1.336818 2.217332 -3.740402
v 2.565699 -0.000000 -3.701858
v 1.336818 1.837355 -3.701858
v 2.565699 1.837355 -3.701858
v 1.336818 1.837355 -3.638963
v 1.336818 -0.000000 -3.638963
v 2.565699 -0.000000 -3.638963
v 2.565699 1.837355 -3.638963
v -0.313457 -0.000000 -3.701858
v -0.313457 2.078697 -3.701858
v 1.277161 2.204618 -3.701858
v 1.277081 2.204618 -3.740402
v -0.497116 2.073225 -3.740183
v -0.459182 2.067164 -3.740183
v 0.107937 -0.000000 -3.701858
v 0.107937 1.837355 -3.701858
v 0.107937 -0.000000 -3.638963
v 0.107937 1.837355 -3.638963
vn 1.0000 -0.0000 -0.0000
vn -0.0000 -1.0000 -0.0000
vn -0.0000 -0.0000 1.0000
vn 0.0001 0.0016 1.0000
vn 0.0007 -0.0001 1.0000
vn -0.0001 0.0005 1.0000
vn 0.0001 -0.0005 1.0000
vn -0.0789 -0.9969 -0.0000
vn -0.0789 -0.9969 0.0001
vn 0.0783 0.9969 -0.0000
vn 0.0789 0.9969 -0.0000
vn 0.1578 -0.9875 -0.0000
vn 0.1577 -0.9875 -0.0000
vn -1.0000 -0.0000 -0.0000
vn -0.0000 1.0000 -0.0000
vn -0.0000 -0.0008 1.0000
vn -0.0789 -0.9969 0.0002
vn -0.0001 0.0016 1.0000
vn 0.0001 0.0005 1.0000
vn -0.0001 -0.0005 1.0000
vn 0.0789 -0.9969 -0.0000
vn 0.0789 -0.9969 0.0001
vn -0.0783 0.9969 -0.0000
vn -0.0789 0.9969 -0.0000
vn -0.1578 -0.9875 -0.0000
vn -0.1577 -0.9875 -0.0000
vn 0.0789 -0.9969 0.0002
vn -0.0000 -0.0000 -1.0000
vn 0.0006 -0.0001 -1.0000
vn 0.0001 0.0016 -1.0000
vn -0.0001 0.0005 -1.0000
vn 0.0001 -0.0005 -1.0000
vn -0.0789 -0.9969 -0.0001
vn -0.0000 -0.0008 -1.0000
vn -0.0789 -0.9969 -0.0002
vn -0.0001 0.0016 -1.0000
vn 0.0001 0.0005 -1.0000
vn -0.0001 -0.0005 -1.0000
vn 0.0789 -0.9969 -0.0001
vn 0.0789 -0.9969 -0.0002
vt 0.375000 0.750000
vt 0.375000 0.625000
vt 0.625000 0.625000
vt 0.343082 0.750000
vt 0.625000 0.875000
vt 0.625000 0.750000
vt 0.625000 0.875167
vt 0.625000 0.991496
vt 0.625000 1.000000
vt 0.625000 0.625069
vt 0.625000 0.125000
vt 0.625000 0.000000
vt 0.595974 0.781918
vt 0.625000 0.625078
vt 0.375000 0.781918
vt 0.375000 0.875000
vt 0.595974 0.875000
vt 0.250000 0.750000
vt 0.250000 0.625000
vt 0.625000 0.124931
vt 0.625000 0.750009
s 1
f 49/18/40 61/19/40 62/20/40
f 68/21/41 61/19/41 49/18/41
f 56/22/42 50/23/42 51/23/42
f 58/24/41 57/22/41 51/23/41
f 58/24/42 52/23/43 59/25/44
f 53/26/45 52/23/43 54/23/46
f 65/27/47 54/23/47 51/23/48
f 66/28/49 60/29/49 53/29/49
f 70/30/42 50/23/42 56/22/42
f 51/23/50 50/23/50 62/20/50
f 54/23/51 65/27/52 64/31/52
f 73/32/53 68/32/53 70/30/53
f 72/33/42 73/32/42 74/30/42
f 74/30/41 70/30/41 69/34/41
f 72/35/54 55/35/54 68/21/54
f 49/18/40 62/20/40 50/23/40
f 61/19/41 68/21/41 67/36/41
f 67/36/41 68/21/41 55/35/41
f 56/22/42 51/23/42 57/22/42
f 58/24/41 51/23/41 52/23/41
f 52/23/43 60/26/55 59/25/44
f 60/26/55 52/23/43 53/26/45
f 63/20/47 65/27/47 51/23/48
f 51/23/48 54/23/47 52/23/56
f 66/28/49 53/29/49 64/37/49
f 50/23/42 70/30/42 49/18/42
f 49/18/42 70/30/42 68/32/42
f 70/30/42 56/22/42 69/34/42
f 51/23/50 62/20/50 63/20/50
f 54/23/51 64/31/52 53/38/51
f 73/32/53 70/30/53 74/30/53
f 72/33/42 74/30/42 71/34/42
f 74/30/41 69/34/41 71/34/41
f 72/35/54 68/21/54 73/21/54
f 75/18/53 82/20/53 81/19/53
f 86/21/41 75/18/41 81/19/41
f 56/22/42 77/23/42 76/23/42
f 58/24/41 77/23/41 57/22/41
f 58/24/42 59/25/44 78/23/57
f 79/26/58 80/23/59 78/23/57
f 85/27/60 77/23/61 80/23/60
f 66/28/62 79/29/62 60/29/62
f 87/30/42 56/22/42 76/23/42
f 77/23/63 82/20/63 76/23/63
f 80/23/64 84/31/65 85/27/65
f 88/32/40 87/30/40 86/32/40
f 72/33/42 89/30/42 88/32/42
f 89/30/41 69/34/41 87/30/41
f 72/35/54 86/21/54 55/35/54
f 75/18/53 76/23/53 82/20/53
f 81/19/41 67/36/41 86/21/41
f 67/36/41 55/35/41 86/21/41
f 56/22/42 57/22/42 77/23/42
f 58/24/41 78/23/41 77/23/41
f 78/23/57 59/25/44 60/26/55
f 60/26/55 79/26/58 78/23/57
f 83/20/60 77/23/61 85/27/60
f 77/23/61 78/23/66 80/23/60
f 66/28/62 84/37/62 79/29/62
f 76/23/42 75/18/42 87/30/42
f 75/18/42 86/32/42 87/30/42
f 87/30/42 69/34/42 56/22/42
f 77/23/63 83/20/63 82/20/63
f 80/23/64 79/38/64 84/31/65
f 88/32/40 89/30/40 87/30/40
f 72/33/42 71/34/42 89/30/42
f 89/30/41 71/34/41 69/34/41
f 72/35/54 88/21/54 86/21/54
f 90/18/40 62/20/40 61/19/40
f 102/21/41 90/18/41 61/19/41
f 97/22/67 92/23/67 91/23/67
f 99/24/41 92/23/41 98/22/41
f 99/24/67 100/25/68 93/23/69
f 94/26/70 95/23/71 93/23/69
f 65/27/47 92/23/72 95/23/47
f 66/28/49 94/29/49 101/29/49
f 104/30/67 97/22/67 91/23/67
f 92/23/50 62/20/50 91/23/50
f 95/23/51 64/31/52 65/27/52
f 107/32/53 104/30/53 102/32/53
f 106/33/67 108/30/67 107/32/67
f 108/30/41 103/34/41 104/30/41
f 106/35/54 102/21/54 96/35/54
f 90/18/40 91/23/40 62/20/40
f 61/19/41 67/36/41 102/21/41
f 67/36/41 96/35/41 102/21/41
f 97/22/67 98/22/67 92/23/67
f 99/24/41 93/23/41 92/23/41
f 93/23/69 100/25/68 101/26/73
f 101/26/73 94/26/70 93/23/69
f 63/20/47 92/23/72 65/27/47
f 92/23/72 93/23/74 95/23/47
f 66/28/49 64/37/49 94/29/49
f 91/23/67 90/18/67 104/30/67
f 90/18/67 102/32/67 104/30/67
f 104/30/67 103/34/67 97/22/67
f 92/23/50 63/20/50 62/20/50
f 95/23/51 94/38/51 64/31/52
f 107/32/53 108/30/53 104/30/53
f 106/33/67 105/34/67 108/30/67
f 108/30/41 105/34/41 103/34/41
f 106/35/54 107/21/54 102/21/54
f 109/18/53 81/19/53 82/20/53
f 115/21/41 81/19/41 109/18/41
f 97/22/67 110/23/67 111/23/67
f 99/24/41 98/22/41 111/23/41
f 99/24/67 112/23/75 100/25/68
f 113/26/76 112/23/75 114/23/77
f 85/27/60 114/23/60 111/23/78
f 66/28/62 101/29/62 113/29/62
f 116/30/67 110/23/67 97/22/67
f 111/23/63 110/23/63 82/20/63
f 114/23/64 85/27/65 84/31/65
f 117/32/40 115/32/40 116/30/40
f 106/33/67 117/32/67 118/30/67
f 118/30/41 116/30/41 103/34/41
f 106/35/54 96/35/54 115/21/54
f 109/18/53 82/20/53 110/23/53
f 81/19/41 115/21/41 67/36/41
f 67/36/41 115/21/41 96/35/41
f 97/22/67 111/23/67 98/22/67
f 99/24/41 111/23/41 112/23/41
f 112/23/75 101/26/73 100/25/68
f 101/26/73 112/23/75 113/26/76
f 83/20/60 85/27/60 111/23/78
f 111/23/78 114/23/60 112/23/79
f 66/28/62 113/29/62 84/37/62
f 110/23/67 116/30/67 109/18/67
f 109/18/67 116/30/67 115/32/67
f 116/30/67 97/22/67 103/34/67
f 111/23/63 82/20/63 83/20/63
f 114/23/64 84/31/65 113/38/64
f 117/32/40 116/30/40 118/30/40
f 106/33/67 118/30/67 105/34/67
f 118/30/41 103/34/41 105/34/41
f 106/35/54 115/21/54 117/21/54
o Plane
v -5.000000 0.000000 5.000000
v 5.000000 0.000000 5.000000
v -5.000000 -0.000000 -5.000000
v 5.000000 -0.000000 -5.000000
vn -0.0000 1.0000 -0.0000
vt 0.000000 1.000000
vt 0.000000 0.000000
vt 1.000000 0.000000
vt 1.000000 1.000000
s 1
f 121/39/80 119/40/80 120/41/80
f 121/39/80 120/41/80 122/42/80
