# Blender 4.4.3
# www.blender.org
mtllib house.mtl
o House
v 2.311629 0.000000 0.976072
v 2.311629 1.465454 0.976072
v 1.190264 1.554226 0.976072
v 1.190320 1.554226 1.003245
v 1.148207 0.000000 0.976072
v 1.148207 1.465454 0.976072
v 1.148207 1.554226 0.976072
v 1.148207 1.562997 1.003245
v 1.148207 1.563190 1.003245
v 2.311629 -0.000000 -0.174248
v 2.311629 1.465454 -0.174248
v 1.190264 1.554226 -0.174248
v 1.148207 -0.000000 -0.174248
v 2.014552 0.000000 0.976072
v 1.148207 1.295311 0.976072
v 2.014552 1.295311 0.976072
v 1.148207 1.295311 0.931731
v 1.148207 0.000000 0.931731
v 2.014552 0.000000 0.931731
v 2.014552 1.295311 0.931731
v -0.015215 0.000000 0.976072
v -0.015215 1.465454 0.976072
v 1.106150 1.554226 0.976072
v 1.106093 1.554226 1.003245
v -0.144692 1.461596 1.003090
v -0.117949 1.457323 1.003090
v -0.015215 -0.000000 -0.174248
v -0.015215 1.465454 -0.174248
v 1.106150 1.554226 -0.174248
v 0.281862 1.295311 0.931731
v 0.281862 0.000000 0.976072
v 0.281862 1.295311 0.976072
v 0.281862 0.000000 0.931731
v 0.281862 1.295311 0.931731
v 2.311629 -0.000000 -1.324568
v 2.311629 1.465454 -1.324568
v 1.190264 1.554226 -1.324568
v 1.190320 1.554226 -1.351741
v 0.281862 0.000000 0.931731
v 2.014552 1.295311 0.931731
v 1.148207 1.465454 -1.324568
v 1.148207 1.554226 -1.324568
v 2.014552 0.000000 0.931731
v 1.148207 1.562997 -1.351741
v 1.148207 1.563189 -1.351741
v 1.148207 -0.000000 -1.324576
v -0.015215 -0.000000 -1.324568
v -0.015215 1.465454 -1.324568
v 1.106150 1.554226 -1.324568
v 1.106093 1.554226 -1.351741
v 1.148207 0.000000 0.931731
v 1.148207 1.295311 0.931731
v -0.012155 0.000000 1.627069
v -0.012155 1.785973 1.627068
v -1.133519 2.844558 1.627068
v -1.133463 2.844560 1.781871
v -1.175576 0.000000 1.627069
v -1.175576 1.785973 1.627068
v -1.175576 2.844558 1.627068
v -1.175576 2.949152 1.781871
v -1.175576 2.951446 1.781870
v -0.012155 0.000000 0.974467
v -0.012155 1.785973 0.974467
v -1.133519 2.844558 0.032679
v -1.175576 0.000000 0.032679
v -2.338999 0.000000 1.627069
v -2.338999 1.785973 1.627068
v -1.217633 2.844558 1.627068
v -1.217690 2.844560 1.781871
v -2.338999 0.000000 0.032679
v -2.338999 1.785973 0.032679
v -1.217633 2.844558 0.032679
v -0.012155 -0.000000 -1.561710
v -0.012155 1.785973 -1.561711
v -1.133519 2.844558 -1.561711
v -1.133463 2.844560 -1.716514
v -1.175576 -0.000000 -1.561710
v -1.175576 1.785973 -1.561711
v -1.175576 2.844558 -1.561711
v -1.175576 2.949151 -1.716514
v -1.175576 2.951445 -1.716513
v -2.338999 -0.000000 -1.561710
v -2.338999 1.785973 -1.561711
v -1.217633 2.844558 -1.561711
v -1.217690 2.844560 -1.716514
v -0.012155 -0.000000 -1.328733
v -0.012155 1.785973 -1.328734
v -0.012155 1.482820 0.974467
v -0.012155 1.482820 -1.561711
v -1.133519 2.844558 1.627068
v -1.133463 2.844560 1.781871
v 0.117323 1.739963 1.780992
v 0.090580 1.689013 1.780992
v -1.175576 2.844558 1.627068
v -1.175576 2.844560 1.781871
v -1.175576 2.949152 1.781871
v -1.175576 2.951446 1.781870
v -1.133519 2.844558 0.032679
v 0.117274 1.739953 0.032679
v 0.090523 1.689011 0.032679
v -1.175576 2.951391 0.032679
v -1.217633 2.844558 1.627068
v -1.217690 2.844560 1.781871
v -2.468475 1.739963 1.780992
v -2.441732 1.689013 1.780992
v -1.217633 2.844558 0.032679
v -2.468426 1.739953 0.032679
v -2.441675 1.689011 0.032679
v -1.133519 2.844558 -1.561711
v -1.133463 2.844560 -1.716514
v 0.117323 1.739963 -1.715635
v 0.090580 1.689013 -1.715635
v -1.175576 2.844558 -1.561711
v -1.175576 2.844560 -1.716514
v -1.175576 2.949151 -1.716514
v -1.175576 2.951445 -1.716513
v -1.217633 2.844558 -1.561711
v -1.217690 2.844560 -1.716514
v -2.468475 1.739963 -1.715635
v -2.441732 1.689013 -1.715635
v 1.190264 1.554226 0.976072
v 1.190320 1.554226 1.003245
v 2.441106 1.461596 1.003090
v 2.414362 1.457323 1.003090
v 1.148207 1.554226 0.976072
v 1.148207 1.554226 1.003245
v 1.148207 1.562997 1.003245
v 1.148207 1.563190 1.003245
v 1.190264 1.554226 -0.174248
v 2.441057 1.461595 -0.174248
v 2.414307 1.457322 -0.174248
v 1.148207 1.563184 -0.174248
v 1.106150 1.554226 0.976072
v 1.106093 1.554226 1.003245
v -0.144692 1.461596 1.003090
v -0.117949 1.457323 1.003090
v 1.106150 1.554226 -0.174248
v -0.144643 1.461595 -0.174248
v -0.117893 1.457322 -0.174248
v 1.190264 1.554226 -1.324568
v 1.190320 1.554226 -1.351741
v 2.441106 1.461596 -1.351586
v 2.414362 1.457323 -1.351586
v 1.148207 1.554226 -1.324568
v 1.148207 1.554226 -1.351741
v 1.148207 1.562997 -1.351741
v 1.148207 1.563189 -1.351741
v 1.106150 1.554226 -1.324568
v 1.106093 1.554226 -1.351741
v -0.144692 1.461596 -1.351586
v -0.117949 1.457323 -1.351586
vn 1.0000 -0.0000 -0.0000
vn -0.0000 -1.0000 -0.0000
vn -0.0000 -0.0000 1.0000
vn -1.0000 -0.0000 -0.0000
vn -0.0789 0.9969 -0.0000
vn -0.6865 -0.7272 0.0001
vn -0.6865 -0.7272 -0.0000
vn -0.6865 -0.7272 0.0003
vn 0.6865 -0.7272 0.0001
vn 0.6865 -0.7272 -0.0000
vn -0.0001 -0.0000 1.0000
vn -0.0001 -0.0010 1.0000
vn -0.0005 -0.0002 1.0000
vn -0.0011 0.0004 1.0000
vn 0.6865 0.7272 -0.0000
vn -0.6838 0.7297 -0.0000
vn -0.0001 -0.0005 1.0000
vn 0.0789 0.9969 -0.0000
vn -0.0000 1.0000 -0.0000
vn -0.0000 -0.0012 1.0000
vn 0.0011 0.0004 1.0000
vn 0.0005 -0.0002 1.0000
vn 0.0001 -0.0000 1.0000
vn -0.8854 -0.4649 -0.0000
vn -0.8854 -0.4648 -0.0000
vn -0.8853 -0.4649 -0.0000
vn 0.8854 -0.4648 -0.0000
vn 0.8854 -0.4649 -0.0000
vn -0.0000 -0.0000 -1.0000
vn 0.0005 -0.0002 -1.0000
vn 0.0005 -0.0003 -1.0000
vn 0.0006 0.0003 -1.0000
vn 0.0002 -0.0000 -1.0000
vn 0.6865 -0.7272 0.0003
vn 0.0008 0.0003 -1.0000
vn -0.0002 -0.0000 -1.0000
vn -0.6865 -0.7272 -0.0001
vn 0.6838 0.7297 -0.0000
vn -0.0000 -0.0014 1.0000
vn -0.0000 -0.0002 1.0000
vn 0.0006 0.0002 1.0000
vn -0.0000 -0.0006 -1.0000
vn -0.0011 0.0004 -1.0000
vn -0.0005 -0.0002 -1.0000
vn -0.0006 0.0002 -1.0000
vn -0.0005 -0.0003 1.0000
vn -0.6865 -0.7272 -0.0003
vn -0.6865 0.7272 -0.0000
vn 0.0011 0.0004 -1.0000
vn -0.0000 0.0004 -1.0000
vn -0.0000 -0.0002 -1.0000
vn 0.6865 -0.7272 -0.0001
vn 0.0005 -0.0003 1.0000
vn -0.0005 -0.0003 -1.0000
vn -0.0006 0.0002 1.0000
vn -0.0000 -0.0007 -1.0000
vn 0.6866 -0.7271 -0.0007
vn 0.6865 -0.7272 -0.0003
vn 0.0001 -0.0005 1.0000
vn 0.0002 0.0009 1.0000
vn 0.0789 -0.9969 0.0001
vn 0.0789 -0.9969 -0.0000
vn -0.1578 -0.9875 -0.0000
vn -0.1577 -0.9875 -0.0000
vn -0.0783 0.9969 -0.0000
vn -0.0000 0.0001 1.0000
vn -0.0789 -0.9969 0.0001
vn -0.0789 -0.9969 -0.0000
vn -0.0789 -0.9969 0.0002
vn -0.0789 -0.9969 -0.0001
vn 0.0789 -0.9969 -0.0001
vn 0.0783 0.9969 -0.0000
vn -0.0001 -0.0002 1.0000
vn 0.0789 -0.9969 0.0002
vn 0.0001 -0.0005 -1.0000
vn 0.0001 0.0002 -1.0000
vn 0.1577 -0.9875 -0.0000
vn 0.1578 -0.9875 -0.0000
vn -0.0001 -0.0002 -1.0000
vn -0.0789 -0.9969 -0.0002
vn -0.0001 -0.0005 -1.0000
vn -0.0002 0.0009 -1.0000
vn -0.0000 0.0001 -1.0000
vn 0.0789 -0.9969 -0.0002
vt 1.000000 0.656404
vt 0.977981 0.894337
vt 0.977981 0.656404
vt 0.267004 0.760500
vt 0.374647 0.778072
vt 0.267004 0.778072
vt 0.621875 0.765552
vt 0.621875 0.656405
vt 0.630182 0.761606
vt 0.605954 0.684275
vt 0.267004 0.678438
vt 0.262855 0.729682
vt 0.262855 0.678438
vt 0.267004 0.533727
vt 0.374647 0.640440
vt 0.267004 0.640440
vt 0.978787 0.436120
vt 0.896658 0.328202
vt 0.978787 0.328202
vt 0.794846 0.215835
vt 0.901288 0.107918
vt 0.901288 0.215835
vt 0.137282 0.000000
vt 0.068641 0.149578
vt 0.068641 0.000000
vt 0.374647 0.709256
vt 0.267004 0.658012
vt 0.640895 0.342725
vt 0.484743 0.328285
vt 0.640892 0.328202
vt 0.630182 0.765552
vt 0.645861 0.342725
vt 0.802011 0.492303
vt 0.645861 0.492303
vt 0.979626 0.453447
vt 0.978787 0.449496
vt 0.978805 0.449496
vt 0.144304 0.748653
vt 0.257671 0.627359
vt 0.154306 0.744702
vt 0.000000 0.776937
vt 0.144304 0.926515
vt 0.000000 0.926515
vt 0.650538 0.164101
vt 0.484743 0.000082
vt 0.650542 0.000000
vt 0.605954 0.765552
vt 0.375873 0.167552
vt 0.267004 0.000000
vt 0.375873 0.000000
vt 0.630182 0.769497
vt 0.621875 0.874698
vt 0.988294 0.328202
vt 0.988694 0.330711
vt 0.979626 0.445545
vt 0.605954 0.846828
vt 0.267004 0.729682
vt 0.262855 0.824006
vt 0.901288 0.107918
vt 0.983417 0.215835
vt 0.901288 0.215835
vt 0.467474 0.778072
vt 0.471624 0.837277
vt 0.467474 0.837277
vt 0.467474 0.896482
vt 0.471624 0.896482
vt 0.484743 0.874698
vt 0.154306 0.752604
vt 0.257671 0.869946
vt 0.645858 0.641882
vt 0.643377 0.656405
vt 0.643377 0.641882
vt 0.993972 0.492221
vt 0.988697 0.656240
vt 0.988694 0.492221
vt 0.484743 0.656405
vt 0.267001 0.627194
vt 0.261726 0.463175
vt 0.267004 0.463175
vt 0.375873 0.434415
vt 0.267004 0.266863
vt 0.375873 0.266863
vt 0.630182 0.656404
vt 0.767314 0.765551
vt 0.630182 0.765551
vt 0.775621 0.769497
vt 0.767314 0.874698
vt 0.169948 0.614414
vt 0.165799 0.520091
vt 0.169948 0.520091
vt 0.630182 0.874698
vt 0.775621 0.765551
vt 0.888988 0.656404
vt 0.893755 0.658913
vt 0.785623 0.773748
vt 0.984255 0.117343
vt 0.983435 0.121294
vt 0.983417 0.121294
vt 0.645865 0.328202
vt 0.802014 0.328285
vt 0.983417 0.000000
vt 0.983417 0.107918
vt 0.482290 0.778072
vt 0.767314 0.656404
vt 0.775621 0.761606
vt 0.262855 0.627194
vt 0.267004 0.627194
vt 0.785623 0.777698
vt 0.775836 0.777698
vt 0.984255 0.125245
vt 0.484743 0.328120
vt 0.650542 0.328202
vt 0.388215 0.859348
vt 0.267004 0.940625
vt 0.267004 0.859348
vt 0.267004 0.149578
vt 0.137282 0.299157
vt 0.137282 0.149578
vt 0.640895 0.641882
vt 0.484746 0.492303
vt 0.640895 0.492303
vt 0.484743 0.167552
vt 0.379809 0.266863
vt 0.794846 0.000000
vt 0.794846 0.107918
vt 0.000000 0.299157
vt 0.068641 0.299157
vt 0.988697 0.328202
vt 0.375873 0.266863
vt 0.000004 0.463258
vt 0.165799 0.627276
vt 0.000000 0.627359
vt 0.144519 0.748653
vt 0.165799 0.299239
vt 0.000000 0.299157
vt 0.643377 0.328202
vt 0.645858 0.342725
vt 0.643377 0.342725
vt 0.154306 0.748653
vt 0.775621 0.777698
vt 0.785623 0.781649
vt 0.888988 0.898992
vt 0.227174 0.869946
vt 0.205372 1.000000
vt 0.205372 0.869946
vt 0.484743 0.000000
vt 0.371938 0.266863
vt 0.267004 0.167552
vt 0.896658 0.544038
vt 0.896658 0.436120
vt 0.262438 0.629868
vt 0.640892 0.656405
vt 0.484743 0.656322
vt 0.482290 0.640440
vt 0.482291 0.709256
vt 0.000000 0.061224
vt 0.371938 0.533727
vt 0.267004 0.434415
vt 0.388215 0.778072
vt 0.794846 0.149578
vt 0.650542 0.000000
vt 0.794846 0.000000
vt 0.144304 0.688583
vt 0.000000 0.627359
vt 0.144304 0.627359
vt 0.205372 0.869947
vt 0.144304 1.000000
vt 0.144304 0.869947
vt 0.375873 0.533727
vt 0.645861 0.641882
vt 0.262438 0.867438
vt 0.267001 0.299157
vt 0.267004 0.000000
vt 0.482291 0.533727
vt 0.374647 0.533727
vt 0.484743 0.434415
vt 0.379809 0.533727
vt 0.484743 0.266863
vt 0.893756 0.896483
vt 0.802014 0.656322
vt 0.645865 0.656404
vt 0.650542 0.299157
vt 0.650542 0.149578
vt 0.975496 0.877339
vt 0.973015 0.874789
vt 0.975496 0.874789
vt 0.979626 0.449496
vt 0.988294 0.570790
vt 0.988694 0.568281
vt 0.388215 0.780621
vt 0.467471 0.888539
vt 0.388215 0.888539
vt 0.482295 0.754631
vt 0.484180 0.865084
vt 0.482291 0.865084
vt 0.260442 0.409624
vt 0.165799 0.299171
vt 0.260443 0.299157
vt 0.973015 0.658954
vt 0.893755 0.656419
vt 0.973011 0.656405
vt 0.893759 0.766872
vt 0.973015 0.766872
vt 0.388215 0.996457
vt 0.896658 0.328217
vt 0.802014 0.438669
vt 0.802014 0.328202
vt 0.482295 0.975536
vt 0.388218 0.778072
vt 0.467474 0.778086
vt 0.977977 0.874789
vt 0.984255 0.121294
vt 0.992923 0.000000
vt 0.993323 0.002509
vt 0.165799 0.520076
vt 0.260443 0.520091
vt 0.482294 0.644179
vt 0.484179 0.533727
vt 0.484183 0.644179
vt 0.973011 0.877339
vt 0.893755 0.877324
vt 0.975496 0.656405
vt 0.977977 0.658954
vt 0.975496 0.658954
vt 0.992923 0.242588
vt 0.993323 0.240079
vt 0.484179 0.754632
vt 0.467474 0.998991
vt 0.388218 0.999006
vt 0.896658 0.549122
vt 0.802014 0.549136
vt 1.000000 0.894337
vt 0.267004 0.709256
vt 0.484745 0.164101
vt 0.267004 0.824006
vt 0.471624 0.778072
vt 0.484743 0.846828
vt 0.645861 0.656405
vt 0.993976 0.656240
vt 0.484743 0.684275
vt 0.261722 0.627194
vt 0.165799 0.614414
vt 0.901288 0.000000
vt 0.388215 0.940625
vt 0.267004 0.299157
vt 0.901288 0.000000
vt 0.993976 0.328202
vt 0.165796 0.463258
vt 0.645861 0.328202
vt 0.227174 1.000000
vt 0.978787 0.544038
vt 0.000000 0.000000
vt 0.205372 1.000000
vt 0.261722 0.299157
vt 0.794846 0.299157
vt 0.484183 0.754631
vt 0.165802 0.409624
vt 0.896654 0.438669
vt 0.484183 0.975536
vt 0.977981 0.877339
vt 0.482291 0.533727
vt 0.977981 0.656405
vt 0.482291 0.754632
s 1
usemtl House0
f 88/1/1 74/2/1 63/3/1
f 14/4/2 10/5/2 1/6/2
f 6/7/3 2/8/3 3/9/3
f 16/10/3 2/8/3 6/7/3
f 17/11/2 16/12/2 15/13/2
f 22/14/4 27/15/4 21/16/4
f 29/17/5 22/18/5 23/19/5
f 36/20/1 10/21/1 35/22/1
f 66/23/2 65/24/2 57/25/2
f 13/26/2 31/27/2 27/15/2
f 90/28/6 93/29/7 91/30/8
f 6/7/3 3/9/3 7/31/3
f 102/32/9 108/33/10 106/34/10
f 4/35/11 9/36/3 8/37/3
f 97/38/12 104/39/13 103/40/14
f 64/41/15 74/42/15 75/43/15
f 101/44/16 104/45/16 97/46/16
f 16/10/3 6/7/3 15/47/3
f 58/48/3 66/49/3 57/50/3
f 31/27/2 21/16/2 27/15/2
f 6/7/3 23/51/3 22/52/3
f 25/53/17 26/54/17 24/55/17
f 32/56/3 6/7/3 22/52/3
f 20/57/4 14/58/4 16/12/4
f 12/59/18 36/60/18 37/61/18
f 33/62/19 5/63/19 18/64/19
f 19/65/19 5/63/19 14/66/19
f 21/67/3 32/56/3 22/52/3
f 97/38/20 91/68/21 92/69/22
f 6/7/3 7/31/3 23/51/3
f 117/70/2 114/71/2 113/72/2
f 24/55/23 8/37/3 9/36/3
f 107/73/24 120/74/25 108/75/26
f 16/10/3 1/76/3 2/8/3
f 112/77/27 99/78/28 100/79/28
f 32/56/3 15/47/3 6/7/3
f 78/80/29 73/81/29 77/82/29
f 47/83/29 41/84/29 46/85/29
f 41/84/29 37/86/29 36/87/29
f 34/88/1 31/89/1 33/90/1
f 46/85/29 36/87/29 35/91/29
f 41/84/29 42/92/29 37/86/29
f 111/93/30 112/94/31 110/95/32
f 38/96/33 44/97/29 45/98/29
f 102/32/9 103/99/34 105/100/10
f 12/59/18 2/101/18 11/102/18
f 13/26/2 35/103/2 10/5/2
f 41/84/29 48/104/29 49/105/29
f 17/11/2 32/106/2 34/107/2
f 41/84/29 49/105/29 42/92/29
f 114/108/29 115/109/29 110/95/35
f 50/110/36 45/98/29 44/97/29
f 119/111/16 101/44/16 116/112/16
f 52/113/3 39/114/3 51/115/3
f 71/116/4 82/117/4 70/118/4
f 109/119/37 100/120/7 98/121/7
f 58/48/3 54/122/3 55/123/3
f 14/4/2 13/26/2 10/5/2
f 2/124/1 10/21/1 11/125/1
f 73/126/2 65/24/2 77/127/2
f 105/128/25 107/73/24 108/75/26
f 58/48/3 55/123/3 59/129/3
f 101/130/38 111/131/38 116/132/38
f 56/68/21 61/38/39 60/133/40
f 92/134/38 101/130/38 97/135/38
f 95/136/2 102/137/2 94/138/2
f 95/139/3 91/68/41 96/133/3
f 116/140/42 118/141/43 119/142/44
f 73/143/1 87/144/1 86/145/1
f 58/48/3 53/146/3 54/122/3
f 58/48/3 68/147/3 67/148/3
f 29/17/5 48/149/5 28/150/5
f 58/48/3 59/129/3 68/147/3
f 114/108/29 118/141/45 115/109/29
f 69/40/14 60/133/40 61/38/39
f 104/39/13 105/151/46 103/40/14
f 109/119/37 110/152/47 112/153/7
f 13/26/2 47/154/2 46/155/2
f 62/156/2 57/25/2 65/24/2
f 78/80/29 75/157/29 74/158/29
f 52/113/3 43/6/3 40/159/3
f 72/160/48 67/161/48 68/162/48
f 63/163/15 55/164/15 54/165/15
f 54/166/1 62/167/1 63/168/1
f 114/71/2 109/119/2 113/72/2
f 78/80/29 79/169/29 75/157/29
f 100/120/7 90/28/6 98/121/7
f 76/95/49 80/109/50 81/140/51
f 108/33/10 117/170/52 106/34/10
f 90/28/2 95/136/2 94/138/2
f 92/69/22 91/68/21 93/171/53
f 99/78/28 93/172/27 100/79/28
f 67/173/4 70/118/4 66/23/4
f 48/174/4 27/15/4 28/175/4
f 78/80/29 83/176/29 84/177/29
f 82/117/2 65/24/2 70/118/2
f 78/80/29 82/178/29 83/176/29
f 78/80/29 84/177/29 79/169/29
f 119/142/44 118/141/43 120/179/54
f 85/141/43 81/140/51 80/109/50
f 95/139/3 96/133/3 103/40/55
f 116/140/56 111/93/30 110/95/32
f 117/170/52 120/180/57 118/181/58
f 72/160/48 83/182/48 71/183/48
f 145/184/2 140/185/2 144/186/2
f 126/187/3 122/35/3 127/37/3
f 123/188/59 122/35/60 124/189/59
f 133/190/61 139/191/62 137/192/62
f 136/193/63 138/194/64 139/195/64
f 132/196/65 135/197/65 128/198/65
f 128/36/66 122/35/60 123/188/59
f 121/199/67 124/200/68 122/201/69
f 140/185/70 131/202/68 129/203/68
f 126/187/3 127/37/3 134/55/3
f 139/191/62 148/204/71 137/192/62
f 123/205/72 132/206/72 128/207/72
f 138/194/64 151/208/63 139/195/64
f 128/36/66 135/53/73 134/55/11
f 133/190/61 134/209/74 136/210/62
f 148/211/2 145/184/2 144/186/2
f 145/212/29 146/97/29 141/96/29
f 142/213/75 143/214/75 141/96/76
f 131/202/68 121/199/67 129/203/68
f 150/215/65 132/196/65 147/216/65
f 130/217/77 124/218/78 131/219/77
f 147/98/79 142/213/75 141/96/76
f 140/185/70 141/220/80 143/221/68
f 126/222/2 133/223/2 125/224/2
f 145/212/29 149/110/29 146/97/29
f 150/225/81 149/110/82 151/226/81
f 143/227/78 130/217/77 131/219/77
f 147/98/83 149/110/82 150/225/81
f 148/204/71 151/228/62 149/229/84
f 132/206/72 142/230/72 147/231/72
f 121/199/2 126/222/2 125/224/2
f 88/1/1 89/232/1 74/2/1
f 17/11/2 20/57/2 16/12/2
f 22/14/4 28/175/4 27/15/4
f 29/17/5 28/150/5 22/18/5
f 36/20/1 11/125/1 10/21/1
f 66/23/2 70/118/2 65/24/2
f 13/26/2 5/233/2 31/27/2
f 102/32/9 105/100/10 108/33/10
f 64/41/15 63/163/15 74/42/15
f 101/44/16 107/234/16 104/45/16
f 58/48/3 67/148/3 66/49/3
f 20/57/4 19/235/4 14/58/4
f 12/59/18 11/102/18 36/60/18
f 33/62/19 31/236/19 5/63/19
f 19/65/19 18/64/19 5/63/19
f 21/67/3 31/237/3 32/56/3
f 117/70/2 118/238/2 114/71/2
f 107/73/24 119/239/25 120/74/25
f 16/10/3 14/240/3 1/76/3
f 112/77/27 111/241/27 99/78/28
f 78/80/29 74/158/29 73/81/29
f 47/83/29 48/104/29 41/84/29
f 34/88/1 32/242/1 31/89/1
f 46/85/29 41/84/29 36/87/29
f 12/59/18 3/243/18 2/101/18
f 13/26/2 46/155/2 35/103/2
f 17/11/2 15/13/2 32/106/2
f 119/111/16 107/234/16 101/44/16
f 52/113/3 30/244/3 39/114/3
f 71/116/4 83/245/4 82/117/4
f 109/119/37 112/153/7 100/120/7
f 14/4/2 5/233/2 13/26/2
f 2/124/1 1/246/1 10/21/1
f 73/126/2 62/156/2 65/24/2
f 105/128/25 104/247/25 107/73/24
f 101/130/38 99/248/38 111/131/38
f 92/134/38 99/248/38 101/130/38
f 95/136/2 103/249/2 102/137/2
f 73/143/1 74/250/1 87/144/1
f 58/48/3 57/50/3 53/146/3
f 29/17/5 49/251/5 48/149/5
f 13/26/2 27/15/2 47/154/2
f 62/156/2 53/252/2 57/25/2
f 52/113/3 51/115/3 43/6/3
f 72/160/48 71/183/48 67/161/48
f 63/163/15 64/41/15 55/164/15
f 54/166/1 53/253/1 62/167/1
f 114/71/2 110/152/2 109/119/2
f 100/120/7 93/29/7 90/28/6
f 108/33/10 120/180/57 117/170/52
f 90/28/2 91/30/2 95/136/2
f 99/78/28 92/254/27 93/172/27
f 67/173/4 71/116/4 70/118/4
f 48/174/4 47/154/4 27/15/4
f 82/117/2 77/127/2 65/24/2
f 78/80/29 77/82/29 82/178/29
f 72/160/48 84/255/48 83/182/48
f 145/184/2 141/220/2 140/185/2
f 133/190/61 136/210/62 139/191/62
f 136/193/63 135/256/63 138/194/64
f 132/196/65 138/257/65 135/197/65
f 140/185/70 143/221/68 131/202/68
f 139/191/62 151/228/62 148/204/71
f 123/205/72 130/258/72 132/206/72
f 138/194/64 150/259/63 151/208/63
f 148/211/2 149/260/2 145/184/2
f 131/202/68 124/200/68 121/199/67
f 150/215/65 138/257/65 132/196/65
f 130/217/77 123/261/78 124/218/78
f 126/222/2 134/262/2 133/223/2
f 143/227/78 142/263/78 130/217/77
f 132/206/72 130/258/72 142/230/72
f 121/199/2 122/201/2 126/222/2
o Plane
v -3.096311 0.000000 3.127372
v -3.096311 -0.000000 -0.355977
v 0.387039 0.000000 3.127372
v -3.096311 -0.000000 -1.517094
v 1.548156 0.000000 3.127372
v -3.096311 0.000000 1.192178
v -1.161117 0.000000 3.127372
v -1.548156 -0.000000 -3.065249
v 3.096311 0.000000 1.579217
v 1.161117 -0.000000 -1.517094
v 0.000000 0.000000 0.972770
v -2.322233 -0.000000 -1.537159
v -3.096311 -0.000000 -3.065249
v 3.096311 -0.000000 -3.065249
v -0.387039 -0.000000 -3.065249
v 3.096311 0.000000 0.418100
v -0.008263 -0.000000 -1.268714
v -0.774078 0.000000 1.579217
v -2.322233 0.000000 0.418100
v 1.161117 -0.000000 -3.065249
v 3.096311 -0.000000 -1.130055
v 3.096311 0.000000 3.127372
v -0.008263 -0.000000 -1.537159
v 2.301853 0.000000 0.949208
v -1.548156 0.000000 2.353295
v -2.322233 0.000000 1.579217
v 1.161117 0.000000 1.932062
v 1.935194 -0.000000 -2.291172
v 2.301853 -0.000000 -1.268714
v -1.161117 -0.000000 -2.291172
v -1.161117 -0.000000 -1.537159
v -0.012155 0.000000 1.627069
v -0.774078 0.000000 1.579217
vn -0.0000 1.0000 -0.0000
vt 1.000000 0.562500
vt 0.753240 0.501334
vt 1.000000 0.312500
vt 0.562500 1.000000
vt 0.312500 1.000000
vt 0.437500 0.875000
vt 0.250000 0.625000
vt 0.250000 0.875000
vt 0.125000 0.750000
vt 0.000000 1.000000
vt 0.875000 0.187500
vt 1.000000 0.000000
vt 1.000000 0.750000
vt 0.875000 0.687500
vt 0.750000 1.000000
vt 0.753240 0.875000
vt 0.753240 0.687500
vt 0.709891 0.128291
vt 0.437500 0.000000
vt 0.687500 0.000000
vt 0.750000 0.312500
vt 0.351735 0.128291
vt 0.000000 0.000000
vt 0.250000 0.000000
vt 0.193022 0.312500
vt 0.000000 0.437500
vt 0.000000 0.250000
vt 0.000000 0.687500
vt 1.000000 1.000000
vt 0.709891 0.501334
vt 0.347931 0.500000
vt 0.242273 0.501963
s 1
usemtl Grass0
f 166/264/85 174/265/85 171/266/85
f 153/267/85 157/268/85 170/269/85
f 169/270/85 177/271/85 176/272/85
f 157/268/85 152/273/85 177/271/85
f 171/266/85 179/274/85 165/275/85
f 159/276/85 181/277/85 166/264/85
f 155/278/85 153/267/85 163/279/85
f 163/279/85 153/267/85 170/269/85
f 181/277/85 182/280/85 174/265/85
f 166/264/85 181/277/85 174/265/85
f 180/281/85 167/282/85 172/283/85
f 179/274/85 180/281/85 172/283/85
f 179/274/85 161/284/85 180/281/85
f 179/274/85 172/283/85 165/275/85
f 180/281/85 175/285/85 167/282/85
f 175/285/85 173/286/85 160/287/85
f 175/285/85 160/287/85 167/282/85
f 178/288/85 154/289/85 156/290/85
f 178/288/85 169/270/85 154/289/85
f 178/288/85 156/290/85 173/286/85
f 177/271/85 152/273/85 158/291/85
f 176/272/85 177/271/85 158/291/85
f 169/270/85 158/291/85 154/289/85
f 169/270/85 176/272/85 158/291/85
f 170/269/85 157/268/85 177/271/85
f 171/266/85 174/265/85 179/274/85
f 174/265/85 161/284/85 179/274/85
f 164/292/85 181/277/85 159/276/85
f 164/292/85 163/279/85 181/277/85
f 163/279/85 182/280/85 181/277/85
f 164/292/85 155/278/85 163/279/85
f 168/293/85 180/281/85 161/284/85
f 161/284/85 174/265/85 168/293/85
f 178/288/85 173/286/85 175/285/85
f 175/285/85 162/294/85 178/288/85
f 178/288/85 183/295/85 169/270/85
f 178/288/85 162/294/85 183/295/85
l 183 184
