# Blender 4.4.3
# www.blender.org
mtllib arrow.mtl
o Cube
v -0.343386 -0.343386 0.343386
v -0.343386 0.343386 0.343386
v -0.343386 -0.343386 -0.343386
v -0.343386 0.343386 -0.343386
v 0.343386 -0.343386 0.343386
v 0.343386 0.343386 0.343386
v 0.343386 -0.343386 -0.343386
v 0.343386 0.343386 -0.343386
v -0.716065 0.716065 -0.916754
v -0.716065 -0.716065 -0.916754
v 0.716065 -0.716065 -0.916754
v 0.716065 0.716065 -0.916754
v -0.005450 -0.005450 -3.395943
v -0.189325 0.343386 0.189325
v -0.189325 0.343386 -0.189325
v 0.189325 0.343386 -0.189325
v 0.189325 0.343386 0.189325
v -0.270172 0.808856 0.270172
v -0.270172 0.808856 -0.270172
v 0.270172 0.808856 -0.270172
v 0.270172 0.808856 0.270172
v -0.005047 1.974940 0.005047
vn -1.0000 -0.0000 -0.0000
vn -0.0000 0.8385 0.5450
vn 1.0000 -0.0000 -0.0000
vn -0.0000 -0.0000 1.0000
vn -0.0000 -1.0000 -0.0000
vn -0.0000 1.0000 -0.0000
vn -0.0000 0.9602 -0.2794
vn -0.8385 -0.0000 0.5450
vn 0.8385 -0.0000 0.5450
vn -0.0000 -0.8385 0.5450
vn -0.9613 -0.0000 -0.2755
vn 0.9602 -0.0000 -0.2794
vn -0.0000 -0.9613 -0.2755
vn 0.9852 -0.1711 -0.0000
vn 0.9733 0.2297 -0.0000
vn -0.9852 -0.1711 -0.0000
vn -0.0000 -0.1711 0.9852
vn -0.0000 -0.1711 -0.9852
vn -0.9751 0.2217 -0.0000
vn -0.0000 0.2217 0.9751
vn -0.0000 0.2297 -0.9733
vt 0.375000 0.000000
vt 0.625000 0.000000
vt 0.625000 0.250000
vt 0.375000 0.250000
vt 0.875000 0.500000
vt 0.625000 0.500000
vt 0.375000 0.500000
vt 0.625000 0.750000
vt 0.375000 0.750000
vt 0.625000 1.000000
vt 0.375000 1.000000
vt 0.125000 0.500000
vt 0.125000 0.750000
s 0
f 1/1/1 2/2/1 4/3/1 3/4/1
f 4/5/2 8/6/2 12/6/2 9/5/2
f 7/7/3 8/6/3 6/8/3 5/9/3
f 5/9/4 6/8/4 2/10/4 1/11/4
f 3/12/5 7/7/5 5/9/5 1/13/5
f 4/3/6 2/2/6 14/2/6 15/3/6
f 9/5/7 12/6/7 13/5/7
f 3/4/8 4/3/8 9/3/8 10/4/8
f 8/6/9 7/7/9 11/7/9 12/6/9
f 7/7/10 3/12/10 10/12/10 11/7/10
f 10/4/11 9/3/11 13/4/11
f 12/6/12 11/7/12 13/6/12
f 11/7/13 10/12/13 13/7/13
f 17/8/14 16/6/14 20/6/14 21/8/14
f 2/10/6 6/8/6 17/8/6 14/10/6
f 8/6/6 4/5/6 15/5/6 16/6/6
f 6/8/6 8/6/6 16/6/6 17/8/6
f 21/8/15 20/6/15 22/8/15
f 15/3/16 14/2/16 18/2/16 19/3/16
f 14/10/17 17/8/17 21/8/17 18/10/17
f 16/6/18 15/5/18 19/5/18 20/6/18
f 19/3/19 18/2/19 22/3/19
f 18/10/20 21/8/20 22/10/20
f 20/6/21 19/5/21 22/6/21
